<svg xmlns="http://www.w3.org/2000/svg" width="60" height="88" viewBox="0 0 60 88">
  <defs>
    <style>
      .item-group {
        display: flex;
        justify-content: center;
      }

      .cozy {
        animation: cloud 1s infinite ease-out;
        -webkit-animation: cloud 1s infinite ease-out;
        -moz-animation: cloud 1s infinite ease-out;
      }
      .shadow {
        opacity: 1;
        animation: disappeared 1s infinite ease-in-out;
        -webkit-animation: disappeared 1s infinite ease-in-out;
        -moz-animation: disappeared 1s infinite ease-in-out;
      }

      @-webkit-keyframes cloud {
        0%, 100% {
          transform: translateY(-4px);
        }
        60% {
          transform: translateY(-12px);
        }
      }

      @-webkit-keyframes disappeared {
        0%, 100% {
          opacity: 1;
          transform: scale(1);
          transform-origin: center;
        }
        60% {
          opacity: 0.66;
          transform: scale(0.75);
          transform-origin: center;
        }
      }
    </style>
  </defs>
  <g fill="none" fill-rule="evenodd" class="item-group">
    <ellipse class="shadow" cx="30" cy="69" fill="#E3E6E8" rx="30" ry="3"/>
    <path class="cozy" fill="#3CA8FC" d="M44.1126693,62 L15.8873307,62 C7.12505251,62 0,54.8194828 0,45.9927006 C0,41.7834318 1.60841819,37.8072733 4.53117811,34.7985822 C7.09144378,32.1655245 10.4079061,30.5265065 13.9956389,30.1001444 C14.419349,26.4851254 16.0445716,23.1430747 18.6600516,20.5643692 C21.6464281,17.618485 25.5918539,16 29.7701402,16 C33.9472263,16 37.8938524,17.618485 40.8802289,20.5631613 C43.4849061,23.1309965 45.1053274,26.4549298 45.5398404,30.0506237 C53.6335447,30.7813574 60,37.6526717 60,45.9939083 C60,54.8194828 52.8701462,62 44.111469,62 L44.1126693,62 Z M44.166873,58.9987703 L44.2883988,58.9987703 C51.2980083,58.9987703 57,53.2215936 57,46.1200197 C57,39.0196754 51.2980083,33.2424987 44.2883988,33.2424987 L44.1607967,33.2424987 C43.2457072,33.2424987 42.4958929,32.5046729 42.4752335,31.5750122 C42.3172499,24.6394491 36.6176888,19 29.7684933,19 C22.9192979,19 17.2173062,24.6419085 17.0605379,31.5774717 C17.0398785,32.4899163 16.3143693,33.2252828 15.4126477,33.2461878 C8.56831327,33.4060502 3,39.1807673 3,46.1212493 C3,53.2228234 8.70199167,59 15.7116012,59 L15.8148982,59 L15.8550017,58.9975405 C15.8914594,58.9975405 15.9279172,58.9975405 15.9643749,59 L44.1632272,59 L44.166873,58.9987703 Z M37.9178586,45.0336878 C36.9155981,44.3754234 36.8663853,43.1663909 36.8639846,43.1132466 C36.8567828,42.7847184 36.5903135,42.5262439 36.2638286,42.5310752 C35.9373437,42.5371144 35.6780763,42.8088749 35.6840779,43.1349876 C35.6864785,43.1784693 35.7032829,43.7461467 35.9721528,44.4152816 C32.4048253,47.8165158 26.7993678,47.8213469 23.2248385,44.4358147 C23.5009102,43.7570172 23.5189149,43.179677 23.5189149,43.1361953 C23.5249165,42.8100827 23.2668494,42.5407378 22.9427651,42.5322831 C22.6222818,42.5226205 22.349811,42.7859262 22.3390081,43.1120389 C22.3390081,43.1603519 22.2909957,44.3742155 21.2863344,45.03248 C21.0126633,45.2136537 20.9358433,45.5820402 21.1146898,45.8562164 C21.2275192,46.0301431 21.4147678,46.1255613 21.6092184,46.1255613 C21.7196471,46.1255613 21.8312761,46.0941578 21.930902,46.0289353 C22.1889691,45.8598399 22.4050253,45.6665879 22.5862724,45.4612577 C24.5715886,47.2609164 27.0802409,48.1607457 29.5888931,48.1607457 C32.1035469,48.1607457 34.6182007,47.2572929 36.6071179,45.4491795 C36.7895653,45.6569254 37.0080221,45.8550086 37.2732911,46.0289353 C37.3717166,46.0941578 37.484546,46.1255613 37.5949747,46.1255613 C37.7870246,46.1255613 37.9754736,46.0289353 38.0895033,45.8550086 C38.2671495,45.5796245 38.1903295,45.2100303 37.9178586,45.0312722 L37.9178586,45.0336878 Z"/>
  </g>
</svg>